<svg xmlns="http://www.w3.org/2000/svg"><style>@keyframes pulse{0%{opacity:.5}50%{transform:translateZ(0) scale(2.25)}70%{opacity:0;transform:translateZ(0) scale(2.25)}to{opacity:0}}:root svg:not(:target){display:none}</style><svg viewBox="0 0 238 276" fill="none" id="24-hours"><path d="m211.314 81.628 4.273-4.287c6.165-6.175 7.291-15.148 2.499-19.94-4.792-4.79-13.752-3.678-19.91 2.496l-4.305 4.311a118.265 118.265 0 0 0-59.684-25.578v-7.67h6.118c8.714 0 15.846-6.966 15.846-15.476 0-8.51-7.132-15.484-15.846-15.484H97.721c-8.714 0-15.846 6.966-15.846 15.484S89.007 30.96 97.721 30.96h6.118v7.67a118.935 118.935 0 0 0-69.052 34A119.238 119.238 0 0 0 .946 141.836a119.313 119.313 0 0 0 15.518 75.474 119.047 119.047 0 0 0 58.389 50.187 118.839 118.839 0 0 0 76.847 3.916 118.988 118.988 0 0 0 63.175-43.991 119.28 119.28 0 0 0 23.089-73.506 119.27 119.27 0 0 0-26.65-72.287Zm-92.301 163.319a87.901 87.901 0 0 1-48.884-14.85 88.092 88.092 0 0 1-32.407-39.546 88.23 88.23 0 0 1-5.006-50.911A88.153 88.153 0 0 1 56.8 94.524a87.95 87.95 0 0 1 45.053-24.113 87.87 87.87 0 0 1 50.838 5.017 88.012 88.012 0 0 1 39.486 32.457 88.197 88.197 0 0 1 14.825 48.956 88.177 88.177 0 0 1-25.774 62.301 87.923 87.923 0 0 1-62.214 25.805Z" fill="#DEDEDE"/><circle cx="119" cy="157" r="93" stroke="#D22856" stroke-width="16"/><path d="M115.906 191H68v-10.078l17.203-17.391c5.094-5.219 8.422-8.828 9.984-10.828 1.563-2.031 2.688-3.906 3.376-5.625a14.262 14.262 0 0 0 1.03-5.344c0-2.75-.765-4.796-2.296-6.14-1.5-1.344-3.516-2.016-6.047-2.016-2.656 0-5.234.61-7.734 1.828-2.5 1.219-5.11 2.953-7.829 5.203l-7.874-9.328c3.374-2.875 6.171-4.906 8.39-6.093 2.219-1.188 4.64-2.094 7.266-2.719 2.625-.657 5.562-.985 8.812-.985 4.281 0 8.063.782 11.344 2.344 3.281 1.563 5.828 3.75 7.641 6.563 1.812 2.812 2.718 6.031 2.718 9.656 0 3.156-.562 6.125-1.687 8.906-1.094 2.75-2.813 5.578-5.156 8.485-2.313 2.906-6.407 7.046-12.282 12.421l-8.812 8.297v.656h29.859V191Zm56.391-14.203h-8.25V191h-14.156v-14.203h-29.25v-10.078l30.047-44.25h13.359v43.078h8.25v11.25Zm-22.406-11.25v-11.625c0-1.938.078-4.75.234-8.438.156-3.687.281-5.828.375-6.422h-.375a52.198 52.198 0 0 1-4.172 7.5l-12.562 18.985h16.5Z" fill="#D22856"/></svg><svg viewBox="0 0 48 24" fill="none" id="burger"><path d="M1.091 0a1.155 1.155 0 0 0-.42.07C.535.12.414.195.312.288a.978.978 0 0 0-.236.327A.908.908 0 0 0 0 1v2c0 .265.115.52.32.707.204.188.482.293.771.293H46.91c.144.003.287-.021.42-.07.135-.05.256-.123.358-.217a.978.978 0 0 0 .236-.327A.909.909 0 0 0 48 3V1a.96.96 0 0 0-.32-.707A1.143 1.143 0 0 0 46.91 0H1.09Zm0 10a1.156 1.156 0 0 0-.42.07c-.135.05-.256.123-.358.217a.978.978 0 0 0-.236.327A.909.909 0 0 0 0 11v2c0 .265.115.52.32.707.204.188.482.293.771.293H46.91c.144.003.287-.021.42-.07.135-.05.256-.123.358-.217a.978.978 0 0 0 .236-.327A.91.91 0 0 0 48 13v-2a.96.96 0 0 0-.32-.707A1.144 1.144 0 0 0 46.91 10H1.09Zm0 10a1.154 1.154 0 0 0-.42.07c-.135.05-.256.123-.358.217a.977.977 0 0 0-.236.327A.908.908 0 0 0 0 21v2c0 .265.115.52.32.707.204.187.482.293.771.293H46.91c.144.003.287-.021.42-.07.135-.05.256-.124.358-.217a.979.979 0 0 0 .236-.327A.909.909 0 0 0 48 23v-2a.96.96 0 0 0-.32-.707A1.143 1.143 0 0 0 46.91 20H1.09Z" fill="#fff"/></svg><svg viewBox="0 0 13 12" fill="none" id="heart-empty"><path d="M6.469 12a.782.782 0 0 1-.58-.25C1.958 7.42 1.036 6.44.86 6.17A3.765 3.765 0 0 1 0 3.8a3.723 3.723 0 0 1 .63-2.045A3.921 3.921 0 0 1 2.3.355 4.09 4.09 0 0 1 4.487.035 4.031 4.031 0 0 1 6.51.9 4.08 4.08 0 0 1 9.07 0a4.013 4.013 0 0 1 2.78 1.117A3.733 3.733 0 0 1 13 3.8a3.409 3.409 0 0 1-.923 2.38l-5.038 5.56a.757.757 0 0 1-.57.25V12ZM2.073 5.28c.218.26 2.56 2.84 4.396 4.86l4.478-4.94a1.96 1.96 0 0 0 .539-1.4c0-.618-.254-1.21-.707-1.648A2.461 2.461 0 0 0 9.07 1.47c-.38.003-.756.09-1.097.252-.341.163-.64.398-.873.688a.844.844 0 0 1-.612.28.757.757 0 0 1-.332-.082.729.729 0 0 1-.258-.218 2.43 2.43 0 0 0-.868-.682 2.49 2.49 0 0 0-2.372.132 2.369 2.369 0 0 0-.882.968 2.267 2.267 0 0 0 .296 2.462v.01Z" fill="#D22856"/></svg><svg viewBox="0 0 13 12" fill="none" id="heart"><path d="M6.469 12a.782.782 0 0 1-.58-.25C1.958 7.42 1.036 6.44.86 6.17A3.765 3.765 0 0 1 0 3.8a3.723 3.723 0 0 1 .63-2.045A3.921 3.921 0 0 1 2.3.355 4.09 4.09 0 0 1 4.487.035 4.031 4.031 0 0 1 6.51.9 4.08 4.08 0 0 1 9.07 0a4.013 4.013 0 0 1 2.78 1.117A3.733 3.733 0 0 1 13 3.8a3.409 3.409 0 0 1-.923 2.38l-5.038 5.56a.757.757 0 0 1-.57.25V12Z" fill="#D22856"/></svg><svg viewBox="0 0 18 13" fill="none" id="mail"><path d="M14.91 1.68c1.2-.928.91-1.68-.65-1.68H3.73c-1.56 0-1.85.761-.66 1.68l3.75 2.898c.621.45 1.387.696 2.175.696.788 0 1.554-.245 2.175-.696l3.74-2.897Z" fill="#D22856"/><path d="M11.91 6.5 9.7 8.246a1.13 1.13 0 0 1-.26.111l-.1.047c-.109.042-.223.07-.34.083l-.33-.056-.12-.074a1.184 1.184 0 0 1-.24-.13L6.08 6.5l-3.9-2.971C1 2.6 0 3.027 0 4.476v5.859c-.003.347.069.692.21 1.014.14.322.348.615.61.863.263.247.576.444.92.58A3.04 3.04 0 0 0 2.83 13h12.32c.376 0 .748-.07 1.095-.203.347-.134.662-.331.927-.579.265-.247.475-.541.617-.865.142-.323.214-.669.211-1.018v-5.86c0-1.448-1-1.856-2.18-.928L11.91 6.5Z" fill="#D22856"/></svg><svg viewBox="0 0 20 19" fill="none" id="phone"><path d="M10.04 0C6.465 0 2.908.608 1.583 1.815a6.392 6.392 0 0 0-1.58 3.892c-.003.055-.003.11 0 .164 0 .21.088.412.245.56a.86.86 0 0 0 .591.232l3.24-.25h.082a.865.865 0 0 0 .581-.237.78.78 0 0 0 .176-.256.746.746 0 0 0 .059-.3V4.046a.83.83 0 0 1 .067-.335.867.867 0 0 1 .198-.286.922.922 0 0 1 .299-.19.961.961 0 0 1 .353-.068h8.153c.246 0 .482.093.656.258a.856.856 0 0 1 .271.621v1.555a.77.77 0 0 0 .238.553c.152.148.36.234.578.239h.091l3.282.251a.876.876 0 0 0 .59-.232.79.79 0 0 0 .182-.257.756.756 0 0 0 .064-.303 1.45 1.45 0 0 0 0-.164 6.455 6.455 0 0 0-1.56-3.863C17.195.608 13.618 0 10.041 0Zm0 10.304c-.33 0-.653.093-.928.267-.275.174-.489.421-.615.71-.127.29-.16.608-.095.916.064.307.223.59.457.81.234.222.531.373.856.434.324.061.66.03.965-.09.306-.12.567-.323.75-.583a1.526 1.526 0 0 0-.204-2.003 1.669 1.669 0 0 0-.544-.343 1.742 1.742 0 0 0-.641-.118ZM8.788 6.76v-.966a.94.94 0 0 0-.298-.683 1.048 1.048 0 0 0-.72-.283c-.271 0-.53.102-.722.283a.94.94 0 0 0-.298.683v.966l-5.728 5.688a1.932 1.932 0 0 0-.471.647 1.843 1.843 0 0 0-.16.772v1.584c0 .421.175.825.488 1.123a1.73 1.73 0 0 0 1.183.47h.418v.966c0 .13.027.259.08.379.052.12.129.23.226.321.097.092.212.165.339.215a1.096 1.096 0 0 0 1.138-.215.988.988 0 0 0 .227-.321.945.945 0 0 0 .079-.379v-.966h10.905v.966c0 .263.11.514.306.7.196.186.461.29.738.29.277 0 .543-.104.739-.29a.964.964 0 0 0 .306-.7v-.966h.418c.22 0 .438-.04.642-.121.203-.08.388-.198.543-.346a1.58 1.58 0 0 0 .362-.517c.083-.193.125-.4.124-.609v-1.584a1.844 1.844 0 0 0-.155-.77 1.933 1.933 0 0 0-.466-.65L13.382 6.76v-.966a.964.964 0 0 0-.305-.7 1.075 1.075 0 0 0-.74-.29c-.276 0-.542.105-.738.29a.964.964 0 0 0-.306.7v.966H8.787Zm1.254 1.931c.66 0 1.307.186 1.857.534.55.348.978.843 1.231 1.422.253.578.32 1.215.19 1.83a3.12 3.12 0 0 1-.915 1.621 3.403 3.403 0 0 1-1.711.867c-.649.123-1.32.06-1.931-.18a3.312 3.312 0 0 1-1.5-1.167 3.05 3.05 0 0 1-.564-1.76c0-.84.352-1.645.98-2.239a3.439 3.439 0 0 1 2.363-.928Z" fill="#D22856"/></svg><svg viewBox="0 0 80 64" fill="none" id="quotes"><path d="M35.592 7.083 31.229 0C28.748 1.505 0 12.25 0 39.75 0 47.004.346 64 19.22 64c11.379 0 14.175-10.314 14.175-13.635 0-22.072-21.741-14.216-21.741-14.216 0-18.09 20.134-26.939 23.938-29.066ZM80 7.083 75.678 0c-2.46 1.505-31.24 12.25-31.24 39.75 0 7.254.346 24.25 19.23 24.25 11.37 0 14.166-10.314 14.166-13.635 0-22.072-21.742-14.216-21.742-14.216C56.093 18.059 76.269 9.21 80 7.083Z" fill="#EFEFEF"/></svg><svg viewBox="0 0 22 40" fill="none" id="slider-arrow"><path d="M19.959 19.997.252 38.62a.802.802 0 0 0-.187.262.765.765 0 0 0 .187.88.901.901 0 0 0 1.216 0l20.28-19.185a.814.814 0 0 0 .186-.264.775.775 0 0 0-.187-.887L1.468.232A.906.906 0 0 0 .382.14a.823.823 0 0 0-.313.363A.772.772 0 0 0 .02.97a.8.8 0 0 0 .232.414l19.707 18.614Z" fill="#283645"/></svg><svg viewBox="0 0 24 24" fill="none" id="x"><path d="M21.755 0 0 21.755 2.245 24 24 2.245 21.755 0Z" fill="#fff"/><path d="M2.245 0 0 2.245 21.755 24 24 21.755 2.245 0Z" fill="#fff"/></svg><svg viewBox="0 0 27 27" fill="none" id="comparsion-table_false"><path d="m15.644 13.507 10.91-10.92a1.503 1.503 0 0 0 0-2.14 1.524 1.524 0 0 0-2.14 0l-10.909 10.92L2.586.447a1.504 1.504 0 0 0-2.14 0 1.524 1.524 0 0 0 0 2.14l10.92 10.92-10.92 10.91a1.503 1.503 0 0 0 0 2.139 1.514 1.514 0 0 0 2.14 0l10.919-10.91 10.909 10.91a1.514 1.514 0 0 0 2.14-2.14l-10.91-10.91Z" fill="#F25B26"/></svg><svg viewBox="0 0 31 21" fill="none" id="comparsion-table_true"><path d="M30.556.43a1.54 1.54 0 0 0-.499-.318 1.607 1.607 0 0 0-1.179 0 1.54 1.54 0 0 0-.499.318L10.374 17.496 2.578 10.11a1.582 1.582 0 0 0-1.072-.39 1.576 1.576 0 0 0-1.057.425c-.28.266-.442.625-.449 1.001-.007.377.14.74.411 1.016l8.88 8.412c.142.135.31.243.497.316a1.596 1.596 0 0 0 1.67-.316L30.556 2.482c.284-.274.444-.642.444-1.026S30.84.703 30.556.43Z" fill="#3DC644"/></svg><svg viewBox="0 0 22 16" fill="none" id="form_tick"><path d="M21.7.284a1.024 1.024 0 0 0-1.42 0L6.704 13.603 1.735 8.729a1.015 1.015 0 0 0-.72-.294 1.031 1.031 0 0 0-.72.294.985.985 0 0 0 0 1.403l5.688 5.58a1.016 1.016 0 0 0 .72.288c.266-.001.521-.105.71-.289L21.7 1.697A.995.995 0 0 0 22 .99a.978.978 0 0 0-.3-.707Z" fill="#D22856"/></svg><svg viewBox="0 0 36 36" id="map_marker"><circle r="18" cx="50%" cy="50%" fill="#fff"/><circle r="8" cx="50%" cy="50%" fill="#d22856" style="transform:translateZ(0);transform-origin:50% 50%;animation:pulse 2s ease-out infinite"/><circle r="8" cx="50%" cy="50%" fill="#d22856"/></svg><svg viewBox="0 0 43 47" fill="none" id="os_android"><path d="M34.886 14.062H8.114v19.133c-.011.913.332 1.795.96 2.468a3.697 3.697 0 0 0 2.422 1.159v7.453c.044.737.374 1.43.922 1.936a2.986 2.986 0 0 0 2.026.789c.753 0 1.478-.282 2.026-.789.548-.506.878-1.199.922-1.936v-7.433h8.236v7.433c.045.737.375 1.43.922 1.936a2.985 2.985 0 0 0 2.026.789c.754 0 1.478-.282 2.026-.789.548-.506.878-1.199.922-1.936v-7.453a3.707 3.707 0 0 0 2.426-1.158c.63-.673.975-1.555.967-2.468V14.402l-.03-.34ZM2.953 15.745c.78 0 1.53.304 2.081.845.552.54.862 1.275.862 2.04v12.402c.001.38-.074.756-.22 1.107a2.88 2.88 0 0 1-.638.94 2.947 2.947 0 0 1-.956.627 2.995 2.995 0 0 1-3.217-.627A2.866 2.866 0 0 1 0 31.032V18.63c0-.38.076-.756.225-1.107.149-.35.366-.669.64-.937.275-.268.6-.48.959-.625a2.995 2.995 0 0 1 1.13-.216ZM40.057 15.745c.78 0 1.53.304 2.081.845.552.54.862 1.275.862 2.04v12.402c.001.38-.074.756-.221 1.107-.147.351-.364.67-.637.94a2.947 2.947 0 0 1-.956.627 2.994 2.994 0 0 1-3.217-.627 2.867 2.867 0 0 1-.865-2.047V18.63c0-.38.076-.756.225-1.107.148-.35.366-.669.64-.937.275-.268.6-.48.959-.625a2.995 2.995 0 0 1 1.129-.216ZM8.175 12.058h26.568a10.404 10.404 0 0 0-3.26-7.293L34.049.498a.307.307 0 0 0-.122-.461.322.322 0 0 0-.42.11l-2.42 4.157A16.708 16.708 0 0 0 21.458.898a16.977 16.977 0 0 0-9.575 3.406L9.504.187a.325.325 0 0 0-.184-.16.333.333 0 0 0-.246.01.315.315 0 0 0-.112.42l2.493 4.238a10.443 10.443 0 0 0-3.28 7.363Zm17.699-5.21c0-.398.161-.78.449-1.062.287-.281.677-.44 1.083-.44.407 0 .797.159 1.084.44.288.282.45.664.45 1.063 0 .398-.162.78-.45 1.062-.287.282-.677.44-1.084.44-.406 0-.796-.158-1.083-.44a1.488 1.488 0 0 1-.45-1.062Zm-11.384 0c0-.398.162-.78.449-1.062.287-.281.677-.44 1.084-.44.406 0 .796.159 1.084.44.287.282.449.664.449 1.063 0 .398-.162.78-.45 1.062-.287.282-.677.44-1.083.44-.407 0-.797-.158-1.084-.44a1.488 1.488 0 0 1-.449-1.062Z" fill="#A4C639"/></svg><svg viewBox="0 0 47 56" fill="none" id="os_ios"><path d="M39.245 29.74a12.09 12.09 0 0 0 2.127 6.787A12.668 12.668 0 0 0 47 41.063a29.794 29.794 0 0 1-4 7.96c-2.401 3.413-4.905 6.816-8.844 6.904-3.938.09-5.088-2.219-9.526-2.219-4.437 0-5.8 2.15-9.465 2.288-3.663.139-6.686-3.718-9.088-7.111-4.956-6.905-8.752-19.639-3.664-28.2a13.925 13.925 0 0 1 5.024-5.037 14.489 14.489 0 0 1 6.935-1.977c3.724-.069 7.246 2.427 9.526 2.427 2.28 0 6.564-3.009 11.062-2.565 2.084.073 4.121.613 5.954 1.576a13.387 13.387 0 0 1 4.61 3.977c-.275.168-6.31 3.571-6.249 10.653h-.03ZM31.978 8.936C34.16 6.46 35.238 3.247 34.981 0c-3.305.302-6.364 1.82-8.55 4.241-1.862 2.092-3.5 5.445-3.053 8.66 3.247.247 6.555-1.597 8.57-3.945" fill="#fff"/></svg><svg viewBox="0 0 44 41" fill="none" id="os_microsoft"><path d="M20.908 19.524H0V0h20.908v19.524Z" fill="#F05423"/><path d="M44 19.524H23.092V0H44v19.524Z" fill="#84C441"/><path d="M20.908 41H0V21.476h20.908V41Z" fill="#2DABE2"/><path d="M44 41H23.092V21.476H44V41Z" fill="#F9BC15"/></svg><svg viewBox="0 0 32 32" id="photo_contrast"><path d="M16 4a12 12 0 1 1 0 24 12 12 0 0 1 0-24Zm0-4a16 16 0 1 0 0 32 16 16 0 0 0 0-32Z"/><path d="M16 24.29a8.52 8.52 0 0 0 0-17"/></svg><svg viewBox="0 0 44 44" id="photo_crop"><path d="M32 28h4V12a4 4 0 0 0-4-4H16v4h16v16Zm-20 4V0H8v8H0v4h8v20a4 4 0 0 0 4 4h20v8h4v-8h8v-4H12Z"/></svg><svg viewBox="0 0 48 43" id="photo_fill"><path d="M33.12 17.88 15.24 0l-2.83 2.83 4.76 4.76L6.88 17.88a3 3 0 0 0 0 4.24l11 11a3 3 0 0 0 4.24 0l11-11a3 3 0 0 0 0-4.24ZM10.41 20 20 10.42 29.59 20H10.41ZM38 23s-4 4.33-4 7a4 4 0 1 0 8 0c0-2.67-4-7-4-7ZM48 40H0v3h48v-3Z"/></svg><svg viewBox="0 0 9 18" fill="none" id="socials_facebook"><path d="M6.509 3.193H9V0H6.02C2.762.171 1.6 2.271 2.077 5.816H0v3.336h2.076V18h3.945V9.152h2.958V5.816H6.01c-.02-.998-.041-2.29.499-2.623Z" fill="#D22856"/></svg><svg viewBox="0 0 18 14" fill="none" id="socials_twitter"><path d="M11.564.169A3.675 3.675 0 0 1 13.672.14c.688.196 1.291.59 1.723 1.122.71-.21 1.41-.447 2.131-.656a2.03 2.03 0 0 1-.253.917c-.157.284-.38.533-.653.729.253.026.508-.002.747-.081.24-.08.456-.208.633-.376-.099.414-.3.801-.588 1.131-.287.33-.653.594-1.07.772-.247 6.27-3.367 10.467-10.689 10.296H5.15c-.443 0-4.418-.428-5.149-1.75 1.752.245 3.539-.147 4.984-1.095-1.03-.286-2.852-.447-3.161-2.74.388.133.81.163 1.215.085C1.76 7.705.34 7.039.422 4.993c.398.306.905.462 1.421.438C1.102 5.203-.247 2.31.896.825c1.926 1.723 3.964 3.35 7.59 3.512C8.711 2.205 9.69.777 11.563.169Z" fill="#D22856"/></svg><svg viewBox="0 0 15 13" fill="none" id="socials_youtube"><path d="M1.834 12.809a1.257 1.257 0 0 1-1.285.03 1.097 1.097 0 0 1-.443-.457.97.97 0 0 1-.092-.603V1.221A.97.97 0 0 1 .106.618C.2.429.355.27.549.16a1.256 1.256 0 0 1 1.285.031l12.4 5.502c1.022.445 1.022 1.169 0 1.614l-12.4 5.502Z" fill="#D22856"/></svg></svg>