<svg xmlns="http://www.w3.org/2000/svg"><style>:root svg:not(:target){display:none}</style><svg viewBox="0 0 48 24" fill="none" id="burger"><path d="M1.091 0a1.155 1.155 0 0 0-.42.07C.535.12.414.195.312.288a.978.978 0 0 0-.236.327A.908.908 0 0 0 0 1v2c0 .265.115.52.32.707.204.188.482.293.771.293H46.91c.144.003.287-.021.42-.07.135-.05.256-.123.358-.217a.978.978 0 0 0 .236-.327A.909.909 0 0 0 48 3V1a.96.96 0 0 0-.32-.707A1.143 1.143 0 0 0 46.91 0H1.09Zm0 10a1.156 1.156 0 0 0-.42.07c-.135.05-.256.123-.358.217a.978.978 0 0 0-.236.327A.909.909 0 0 0 0 11v2c0 .265.115.52.32.707.204.188.482.293.771.293H46.91c.144.003.287-.021.42-.07.135-.05.256-.123.358-.217a.978.978 0 0 0 .236-.327A.91.91 0 0 0 48 13v-2a.96.96 0 0 0-.32-.707A1.144 1.144 0 0 0 46.91 10H1.09Zm0 10a1.154 1.154 0 0 0-.42.07c-.135.05-.256.123-.358.217a.977.977 0 0 0-.236.327A.908.908 0 0 0 0 21v2c0 .265.115.52.32.707.204.187.482.293.771.293H46.91c.144.003.287-.021.42-.07.135-.05.256-.124.358-.217a.979.979 0 0 0 .236-.327A.909.909 0 0 0 48 23v-2a.96.96 0 0 0-.32-.707A1.143 1.143 0 0 0 46.91 20H1.09Z" fill="#fff"/></svg><svg viewBox="0 0 24 24" fill="none" id="x"><path d="M21.755 0 0 21.755 2.245 24 24 2.245 21.755 0Z" fill="#fff"/><path d="M2.245 0 0 2.245 21.755 24 24 21.755 2.245 0Z" fill="#fff"/></svg></svg>