<svg xmlns="http://www.w3.org/2000/svg"><style>:root svg:not(:target){display:none}</style><svg viewBox="0 0 48 24" fill="none" id="burger"><path d="M1.091 0a1.155 1.155 0 0 0-.42.07C.535.12.414.195.312.288a.978.978 0 0 0-.236.327A.908.908 0 0 0 0 1v2c0 .265.115.52.32.707.204.188.482.293.771.293H46.91c.144.003.287-.021.42-.07.135-.05.256-.123.358-.217a.978.978 0 0 0 .236-.327A.909.909 0 0 0 48 3V1a.96.96 0 0 0-.32-.707A1.143 1.143 0 0 0 46.91 0H1.09Zm0 10a1.156 1.156 0 0 0-.42.07c-.135.05-.256.123-.358.217a.978.978 0 0 0-.236.327A.909.909 0 0 0 0 11v2c0 .265.115.52.32.707.204.188.482.293.771.293H46.91c.144.003.287-.021.42-.07.135-.05.256-.123.358-.217a.978.978 0 0 0 .236-.327A.91.91 0 0 0 48 13v-2a.96.96 0 0 0-.32-.707A1.144 1.144 0 0 0 46.91 10H1.09Zm0 10a1.154 1.154 0 0 0-.42.07c-.135.05-.256.123-.358.217a.977.977 0 0 0-.236.327A.908.908 0 0 0 0 21v2c0 .265.115.52.32.707.204.187.482.293.771.293H46.91c.144.003.287-.021.42-.07.135-.05.256-.124.358-.217a.979.979 0 0 0 .236-.327A.909.909 0 0 0 48 23v-2a.96.96 0 0 0-.32-.707A1.143 1.143 0 0 0 46.91 20H1.09Z" fill="#fff"/></svg><svg viewBox="0 0 24 24" fill="none" id="x"><path d="M21.755 0 0 21.755 2.245 24 24 2.245 21.755 0Z" fill="#fff"/><path d="M2.245 0 0 2.245 21.755 24 24 21.755 2.245 0Z" fill="#fff"/></svg><svg viewBox="0 0 43 47" fill="none" id="os_android"><path d="M34.886 14.062H8.114v19.133c-.011.913.332 1.795.96 2.468a3.697 3.697 0 0 0 2.422 1.159v7.453c.044.737.374 1.43.922 1.936a2.986 2.986 0 0 0 2.026.789c.753 0 1.478-.282 2.026-.789.548-.506.878-1.199.922-1.936v-7.433h8.236v7.433c.045.737.375 1.43.922 1.936a2.985 2.985 0 0 0 2.026.789c.754 0 1.478-.282 2.026-.789.548-.506.878-1.199.922-1.936v-7.453a3.707 3.707 0 0 0 2.426-1.158c.63-.673.975-1.555.967-2.468V14.402l-.03-.34ZM2.953 15.745c.78 0 1.53.304 2.081.845.552.54.862 1.275.862 2.04v12.402c.001.38-.074.756-.22 1.107a2.88 2.88 0 0 1-.638.94 2.947 2.947 0 0 1-.956.627 2.995 2.995 0 0 1-3.217-.627A2.866 2.866 0 0 1 0 31.032V18.63c0-.38.076-.756.225-1.107.149-.35.366-.669.64-.937.275-.268.6-.48.959-.625a2.995 2.995 0 0 1 1.13-.216ZM40.057 15.745c.78 0 1.53.304 2.081.845.552.54.862 1.275.862 2.04v12.402c.001.38-.074.756-.221 1.107-.147.351-.364.67-.637.94a2.947 2.947 0 0 1-.956.627 2.994 2.994 0 0 1-3.217-.627 2.867 2.867 0 0 1-.865-2.047V18.63c0-.38.076-.756.225-1.107.148-.35.366-.669.64-.937.275-.268.6-.48.959-.625a2.995 2.995 0 0 1 1.129-.216ZM8.175 12.058h26.568a10.404 10.404 0 0 0-3.26-7.293L34.049.498a.307.307 0 0 0-.122-.461.322.322 0 0 0-.42.11l-2.42 4.157A16.708 16.708 0 0 0 21.458.898a16.977 16.977 0 0 0-9.575 3.406L9.504.187a.325.325 0 0 0-.184-.16.333.333 0 0 0-.246.01.315.315 0 0 0-.112.42l2.493 4.238a10.443 10.443 0 0 0-3.28 7.363Zm17.699-5.21c0-.398.161-.78.449-1.062.287-.281.677-.44 1.083-.44.407 0 .797.159 1.084.44.288.282.45.664.45 1.063 0 .398-.162.78-.45 1.062-.287.282-.677.44-1.084.44-.406 0-.796-.158-1.083-.44a1.488 1.488 0 0 1-.45-1.062Zm-11.384 0c0-.398.162-.78.449-1.062.287-.281.677-.44 1.084-.44.406 0 .796.159 1.084.44.287.282.449.664.449 1.063 0 .398-.162.78-.45 1.062-.287.282-.677.44-1.083.44-.407 0-.797-.158-1.084-.44a1.488 1.488 0 0 1-.449-1.062Z" fill="#A4C639"/></svg><svg viewBox="0 0 47 56" fill="none" id="os_ios"><path d="M39.245 29.74a12.09 12.09 0 0 0 2.127 6.787A12.668 12.668 0 0 0 47 41.063a29.794 29.794 0 0 1-4 7.96c-2.401 3.413-4.905 6.816-8.844 6.904-3.938.09-5.088-2.219-9.526-2.219-4.437 0-5.8 2.15-9.465 2.288-3.663.139-6.686-3.718-9.088-7.111-4.956-6.905-8.752-19.639-3.664-28.2a13.925 13.925 0 0 1 5.024-5.037 14.489 14.489 0 0 1 6.935-1.977c3.724-.069 7.246 2.427 9.526 2.427 2.28 0 6.564-3.009 11.062-2.565 2.084.073 4.121.613 5.954 1.576a13.387 13.387 0 0 1 4.61 3.977c-.275.168-6.31 3.571-6.249 10.653h-.03ZM31.978 8.936C34.16 6.46 35.238 3.247 34.981 0c-3.305.302-6.364 1.82-8.55 4.241-1.862 2.092-3.5 5.445-3.053 8.66 3.247.247 6.555-1.597 8.57-3.945" fill="#fff"/></svg><svg viewBox="0 0 44 41" fill="none" id="os_microsoft"><path d="M20.908 19.524H0V0h20.908v19.524Z" fill="#F05423"/><path d="M44 19.524H23.092V0H44v19.524Z" fill="#84C441"/><path d="M20.908 41H0V21.476h20.908V41Z" fill="#2DABE2"/><path d="M44 41H23.092V21.476H44V41Z" fill="#F9BC15"/></svg></svg>