<svg xmlns="http://www.w3.org/2000/svg">
  <style>:root svg:not(:target){display:none}</style>

  <svg viewBox="0 0 74 23" id="short" style="fill:var(--logo-text-color, #283645)">
    <path d="M0 1.55A1.29 1.29 0 0 1 1.26.26h7.13c5.06 0 8.39 2.7 8.39 7.13v.06c0 4.85-4.04 7.36-8.8 7.36H2.53v6.8A1.28 1.28 0 0 1 1.27 23 1.27 1.27 0 0 1 0 21.61V1.55Zm8.07 10.97c3.7 0 6.14-2 6.14-4.99v-.06c0-3.2-2.4-4.87-5.96-4.87H2.6v9.88l5.48.04ZM21.6 1.39A1.28 1.28 0 0 1 22.85 0a1.27 1.27 0 0 1 1.27 1.39V21.6A1.28 1.28 0 0 1 22.86 23a1.27 1.27 0 0 1-1.27-1.39V1.4ZM30.67 1.42A1.28 1.28 0 0 1 31.93.17h.34a1.54 1.54 0 0 1 1.29.74l13.6 17.4V1.36A1.24 1.24 0 0 1 48.39.12a1.23 1.23 0 0 1 1.23 1.24v20.3a1.14 1.14 0 0 1-1.15 1.17h-.13a1.7 1.7 0 0 1-1.31-.78L33.12 4.25v17.4a1.26 1.26 0 0 1-1.2 1.25 1.23 1.23 0 0 1-1.2-1.25V1.42h-.05ZM55.94 1.39A1.28 1.28 0 0 1 57.2 0a1.27 1.27 0 0 1 1.26 1.39v12.3L71.23.54c.26-.27.62-.43 1-.45a1.27 1.27 0 0 1 1.21 1.26 1.29 1.29 0 0 1-.41.9l-7.95 7.9 8.57 10.52c.23.26.35.6.35.94a1.31 1.31 0 0 1-1.34 1.28 1.23 1.23 0 0 1-1-.58L63.3 11.86l-4.83 4.85v4.88a1.27 1.27 0 0 1-1.26 1.27 1.26 1.26 0 0 1-1.26-1.27V1.4h-.01Z"/>
  </svg>

  <svg viewBox="0 0 145 40" id="basic">
    <path fill-rule="evenodd" clip-rule="evenodd" style="fill:var(--logo-icon-color, #d22856)" d="m53.9 6.59 5.03 21.14a1.42 1.42 0 0 1-.75 1.72c-.2.09-.43.13-.65.11h-4.01a11.63 11.63 0 0 1-11.49 10.32c-5.92 0-10.8-4.5-11.49-10.32h-1.96A11.75 11.75 0 0 1 16.97 40c-6 0-10.94-4.57-11.61-10.47H1.45A1.36 1.36 0 0 1 .3 29a1.42 1.42 0 0 1-.24-1.27L5.1 6.6C5.46 4.26 7.64 0 13.5 0c.38 0 .76.16 1.03.44a1.5 1.5 0 0 1 0 2.1c-.27.27-.65.43-1.03.43-4.71 0-5.44 3.7-5.5 4.1L3.34 26.6h2.03a11.75 11.75 0 0 1 11.6-10.3c5.94 0 10.84 4.48 11.6 10.3h1.99a11.63 11.63 0 0 1 11.47-10.19c5.89 0 10.75 4.46 11.48 10.23v-.06h2.14L51 7.08c-.07-.41-.77-4.1-5.5-4.1-.39 0-.76-.17-1.03-.44a1.5 1.5 0 0 1 0-2.1c.27-.28.64-.44 1.03-.44 5.85 0 8.03 4.26 8.38 6.59ZM25.66 29.56a9.12 9.12 0 0 0-.02-2.97 8.85 8.85 0 0 0-8.68-7.38 8.85 8.85 0 0 0-8.82 8.94 8.85 8.85 0 0 0 8.81 8.94c4.4 0 8.04-3.26 8.71-7.53Zm24.94 0a8.75 8.75 0 0 0-8.58-10.23 8.75 8.75 0 0 0-8.58 10.23 8.73 8.73 0 0 0 8.58 7.4c4.33 0 7.91-3.2 8.58-7.4Z"/>
    <path style="fill:var(--logo-text-color, #283645)" d="M71 18.55a1.29 1.29 0 0 1 1.26-1.29h7.13c5.06 0 8.39 2.7 8.39 7.13v.06c0 4.85-4.04 7.36-8.8 7.36h-5.44v6.8A1.28 1.28 0 0 1 72.27 40 1.27 1.27 0 0 1 71 38.61V18.55Zm8.07 10.97c3.7 0 6.14-2 6.14-4.99v-.06c0-3.2-2.4-4.87-5.96-4.87H73.6v9.88l5.48.04ZM92.6 18.39A1.28 1.28 0 0 1 93.85 17a1.27 1.27 0 0 1 1.27 1.39V38.6A1.28 1.28 0 0 1 93.86 40a1.27 1.27 0 0 1-1.27-1.39V18.4ZM101.67 18.42a1.28 1.28 0 0 1 1.26-1.25h.34a1.53 1.53 0 0 1 1.29.74l13.6 17.4V18.36a1.24 1.24 0 0 1 1.23-1.24 1.23 1.23 0 0 1 1.23 1.24v20.3a1.16 1.16 0 0 1-.32.83 1.13 1.13 0 0 1-.83.34h-.13a1.69 1.69 0 0 1-1.31-.78l-13.91-17.8v17.4a1.26 1.26 0 0 1-1.2 1.25 1.23 1.23 0 0 1-1.2-1.25V18.42h-.05ZM126.94 18.39A1.28 1.28 0 0 1 128.2 17a1.27 1.27 0 0 1 1.26 1.39v12.3l12.76-13.14c.26-.27.62-.43 1-.45a1.27 1.27 0 0 1 1.21 1.26 1.3 1.3 0 0 1-.41.9l-7.95 7.9 8.57 10.52c.23.26.35.6.35.94a1.33 1.33 0 0 1-.4.92 1.29 1.29 0 0 1-.94.36 1.23 1.23 0 0 1-1-.58l-8.36-10.46-4.83 4.85v4.88a1.28 1.28 0 0 1-.78 1.17 1.26 1.26 0 0 1-1.74-1.17V18.4h-.01Z"/>
  </svg>

  <svg viewBox="0 0 147 40" id="full">
    <path style="fill:var(--logo-text-color, #283645)" d="M72.2 18.42c0-.33.13-.65.36-.89.24-.23.56-.37.9-.38h7.21c5.11 0 8.48 2.68 8.48 7.06v.06c0 4.8-4.08 7.29-8.9 7.29h-5.5v6.73a1.24 1.24 0 0 1-.33.97 1.29 1.29 0 0 1-1.46.3 1.29 1.29 0 0 1-.7-.75 1.24 1.24 0 0 1-.07-.52V18.42Zm8.15 10.87c3.75 0 6.2-1.98 6.2-4.94v-.06c0-3.18-2.41-4.83-6.02-4.83H74.8v9.79l5.55.04ZM94.02 18.27a1.24 1.24 0 0 1 .33-.97 1.29 1.29 0 0 1 .95-.4 1.3 1.3 0 0 1 .95.4 1.26 1.26 0 0 1 .33.97v20.02a1.25 1.25 0 0 1-.33.97 1.28 1.28 0 0 1-.95.4 1.3 1.3 0 0 1-.95-.4 1.26 1.26 0 0 1-.33-.97V18.27ZM103.2 18.3c0-.33.14-.64.38-.87.23-.23.55-.36.88-.37h.36a1.58 1.58 0 0 1 1.3.73l13.74 17.23V18.24c0-.33.13-.64.37-.87a1.26 1.26 0 0 1 1.76 0c.23.23.36.54.36.87v20.1a1.09 1.09 0 0 1-.32.82 1.15 1.15 0 0 1-.84.34h-.13a1.74 1.74 0 0 1-1.33-.77l-14.06-17.64v17.24c0 .32-.13.62-.35.85-.23.23-.53.37-.86.39-.32-.01-.64-.14-.87-.37a1.21 1.21 0 0 1-.35-.87V18.3h-.04ZM128.74 18.27a1.24 1.24 0 0 1 .33-.97 1.29 1.29 0 0 1 .95-.4 1.3 1.3 0 0 1 .95.4 1.25 1.25 0 0 1 .33.97v12.17l12.9-13a1.5 1.5 0 0 1 1-.45c.33.02.64.15.87.38.23.23.36.54.37.87a1.26 1.26 0 0 1-.42.89l-8.04 7.82 8.67 10.42c.22.26.35.59.35.93a1.27 1.27 0 0 1-.41.91 1.32 1.32 0 0 1-.95.36 1.26 1.26 0 0 1-1-.58l-8.46-10.36-4.88 4.8v4.84a1.24 1.24 0 0 1-.79 1.16 1.3 1.3 0 0 1-1.66-.68c-.07-.15-.1-.31-.1-.48v-20h-.01Z"/>
    <g style="fill:var(--logo-icon-color, #d22856)">
      <path d="M43.29 19.07h.73a2.47 2.47 0 0 0-2.14-1.22 2.03 2.03 0 0 1-1.9-1.33c-.72.2-1.42.48-2.1.8h.2c.53 0 1.04.22 1.41.59.38.37.6.87.6 1.4v.28a8.98 8.98 0 0 1 3.2-.52Z"/>
      <path d="M60.73 27.65 55.54 6.57C55.18 4.25 52.93 0 46.9 0c-.4 0-.78.16-1.06.43a1.47 1.47 0 0 0 0 2.1c.28.28.66.43 1.06.43 4.87 0 5.6 3.69 5.67 4.09l4.78 19.45h-2.1a11.72 11.72 0 0 0-5.32-8.41 2.5 2.5 0 0 0-1.54 2.27 2 2 0 0 1 0 .26 9.15 9.15 0 0 1 4.02 7.37c0 .5-.06 1-.14 1.48a8.85 8.85 0 0 1-3.05 5.4 9.13 9.13 0 0 1-11.77 0 8.85 8.85 0 0 1-3.05-5.4 9.03 9.03 0 0 1-.14-1.48 9.1 9.1 0 0 1 .95-3.95c-.5-.03-.98-.26-1.33-.62a1.96 1.96 0 0 1-.54-1.35.7.7 0 0 0-.19-.49 11.57 11.57 0 0 0-1.8 4.94H29.5a11.78 11.78 0 0 0-3.94-7.54 12.17 12.17 0 0 0-16.1 0 11.78 11.78 0 0 0-3.93 7.54H3.44l4.8-19.47c.05-.4.8-4.09 5.66-4.09.4 0 .78-.15 1.06-.43a1.47 1.47 0 0 0 0-2.1A1.52 1.52 0 0 0 13.9 0C7.87 0 5.62 4.25 5.26 6.57L.06 27.65A1.38 1.38 0 0 0 .3 28.9a1.42 1.42 0 0 0 1.2.53H5.5c.08.61.21 1.22.38 1.81.07-.1.1-.23.1-.35A2.03 2.03 0 0 1 8.5 29a8.84 8.84 0 0 1 .06-2.53 8.85 8.85 0 0 1 3.04-5.41 9.13 9.13 0 0 1 11.8 0 8.85 8.85 0 0 1 3.03 5.41 8.87 8.87 0 0 1-2.53 7.75 9.18 9.18 0 0 1-6.38 2.62 9.15 9.15 0 0 1-5.45-1.7c-.36.3-.83.47-1.3.48-.2 0-.4.08-.53.22a.73.73 0 0 0-.22.52c0 .27-.06.54-.18.8a12.09 12.09 0 0 0 7.64 2.7c2.95.01 5.8-1.04 8.02-2.95a11.79 11.79 0 0 0 4-7.44h1.82c.34 2.9 1.74 5.57 3.95 7.51a12.17 12.17 0 0 0 16.06 0 11.78 11.78 0 0 0 3.95-7.5h4.02a1.44 1.44 0 0 0 1.22-.54 1.38 1.38 0 0 0 .22-1.3Z"/>
    </g>
    <path style="fill:var(--logo-text-decor-color, #d22856)" d="M98.94 9.75c-.97 0-1.9-.38-2.57-1.05a3.55 3.55 0 0 1-1.08-2.53c0 .95-.38 1.86-1.06 2.53a3.67 3.67 0 0 1-2.57 1.05c.96 0 1.89.38 2.57 1.05a3.55 3.55 0 0 1 1.06 2.53c0-.95.4-1.86 1.07-2.53a3.69 3.69 0 0 1 2.58-1.05Z"/>
    <path style="fill:var(--logo-icon-decor-color, #283645)" d="M50.92 15.92a4.58 4.58 0 0 1-4.18-2.74 4.37 4.37 0 0 1-.34-1.7 4.4 4.4 0 0 1-1.33 3.14c-.84.83-2 1.3-3.19 1.3 1.2 0 2.35.47 3.2 1.3a4.42 4.42 0 0 1 1.32 3.14c0-1.18.48-2.3 1.32-3.14.85-.83 2-1.3 3.2-1.3ZM38.07 19.38c-.73 0-1.43-.28-1.95-.8a2.7 2.7 0 0 1-.8-1.91c0 .72-.3 1.4-.81 1.91-.52.51-1.22.8-1.95.8.73 0 1.43.29 1.95.8.51.5.8 1.2.8 1.9 0-.71.3-1.4.81-1.9.52-.51 1.22-.8 1.95-.8ZM10.79 33.64c-.73 0-1.43-.3-1.95-.8a2.7 2.7 0 0 1-.8-1.91c0 .71-.29 1.4-.8 1.91-.52.51-1.22.8-1.95.8.73 0 1.43.3 1.95.8.51.5.8 1.2.8 1.92 0-.72.3-1.4.8-1.92.52-.5 1.22-.8 1.95-.8Z"/>
  </svg>

</svg>
