<svg width="48" height="24" viewBox="0 0 48 24" fill="none" xmlns="http://www.w3.org/2000/svg">
<path d="M1.09113 0.00020839C0.947052 -0.00251551 0.803864 0.0214885 0.670167 0.0707781C0.53647 0.120068 0.415024 0.193625 0.313127 0.28703C0.211229 0.380436 0.130984 0.49176 0.077213 0.614315C0.0234422 0.73687 -0.00274422 0.868124 0.000227337 1.00019V3.00016C0.000227337 3.26537 0.115161 3.51972 0.319744 3.70725C0.524327 3.89478 0.801802 4.00014 1.09113 4.00014H46.9089C47.0529 4.00286 47.1961 3.97886 47.3298 3.92957C47.4635 3.88028 47.585 3.80672 47.6869 3.71332C47.7888 3.61991 47.869 3.50859 47.9228 3.38603C47.9766 3.26348 48.0027 3.13222 47.9998 3.00016V1.00019C47.9998 0.734979 47.8848 0.48063 47.6803 0.293097C47.4757 0.105563 47.1982 0.00020839 46.9089 0.00020839H1.09113ZM1.09113 10C0.947052 9.99731 0.803864 10.0213 0.670167 10.0706C0.53647 10.1199 0.415024 10.1935 0.313127 10.2869C0.211229 10.3803 0.130984 10.4916 0.077213 10.6141C0.0234422 10.7367 -0.00274422 10.868 0.000227337 11V13C0.000227337 13.2652 0.115161 13.5195 0.319744 13.7071C0.524327 13.8946 0.801802 14 1.09113 14H46.9089C47.0529 14.0027 47.1961 13.9787 47.3298 13.9294C47.4635 13.8801 47.585 13.8065 47.6869 13.7131C47.7888 13.6197 47.869 13.5084 47.9228 13.3859C47.9766 13.2633 48.0027 13.132 47.9998 13V11C47.9998 10.7348 47.8848 10.4805 47.6803 10.2929C47.4757 10.1054 47.1982 10 46.9089 10H1.09113ZM1.09113 19.9999C0.947052 19.9971 0.803864 20.0211 0.670167 20.0704C0.53647 20.1197 0.415024 20.1933 0.313127 20.2867C0.211229 20.3801 0.130984 20.4914 0.077213 20.614C0.0234422 20.7365 -0.00274422 20.8678 0.000227337 20.9998V22.9998C0.000227337 23.265 0.115161 23.5194 0.319744 23.7069C0.524327 23.8944 0.801802 23.9998 1.09113 23.9998H46.9089C47.0529 24.0025 47.1961 23.9785 47.3298 23.9292C47.4635 23.8799 47.585 23.8064 47.6869 23.713C47.7888 23.6196 47.869 23.5082 47.9228 23.3857C47.9766 23.2631 48.0027 23.1319 47.9998 22.9998V20.9998C47.9998 20.7346 47.8848 20.4803 47.6803 20.2927C47.4757 20.1052 47.1982 19.9999 46.9089 19.9999H1.09113Z" fill="white"/>
</svg>
