<svg width="80" height="64" viewBox="0 0 80 64" fill="none" xmlns="http://www.w3.org/2000/svg">
<path d="M35.5917 7.08324L31.2292 0C28.7479 1.50494 0 12.2502 0 39.7504C0 47.0042 0.345748 64 19.2195 64C30.5987 64 33.3952 53.6862 33.3952 50.3653C33.3952 28.2928 11.6537 36.1486 11.6537 36.1486C11.6537 18.0593 31.7885 9.21022 35.5917 7.08324Z" fill="#EFEFEF"/>
<path d="M80 7.08324L75.6782 0C73.2172 1.50494 44.4388 12.2502 44.4388 39.7504C44.4388 47.0042 44.7845 64 63.6685 64C75.0375 64 77.834 53.6862 77.834 50.3653C77.834 28.2928 56.0925 36.1486 56.0925 36.1486C56.0925 18.0593 76.268 9.21022 80 7.08324Z" fill="#EFEFEF"/>
</svg>
