<svg width="22" height="40" viewBox="0 0 22 40" fill="none" xmlns="http://www.w3.org/2000/svg">
<path d="M19.9587 19.9966L0.251672 38.6201C0.171938 38.6947 0.108642 38.7836 0.0654425 38.8815C0.0222433 38.9794 4.64366e-07 39.0845 4.64366e-07 39.1906C4.64366e-07 39.2967 0.0222433 39.4018 0.0654425 39.4997C0.108642 39.5976 0.171938 39.6865 0.251672 39.7611C0.331439 39.8368 0.426223 39.8969 0.530588 39.9379C0.634953 39.9789 0.746847 40 0.859852 40C0.972856 40 1.08475 39.9789 1.18911 39.9379C1.29348 39.8969 1.38826 39.8368 1.46803 39.7611L21.7475 20.5768C21.8275 20.5013 21.891 20.4116 21.9344 20.3129C21.9777 20.2142 22 20.1083 22 20.0014C22 19.8945 21.9777 19.7887 21.9344 19.6899C21.891 19.5912 21.8275 19.5015 21.7475 19.4261L1.46803 0.232073C1.30326 0.0822368 1.08329 -0.00100018 0.85474 6.37823e-06C0.686099 0.00150238 0.521659 0.0499475 0.38194 0.139296C0.24222 0.228645 0.133411 0.354939 0.0690882 0.50242C0.00476592 0.649901 -0.0122196 0.812037 0.0202509 0.968593C0.0527214 1.12515 0.133209 1.26919 0.251672 1.38275L19.9587 19.9966Z" fill="#283645"/>
</svg>
